<svg xmlns="http://www.w3.org/2000/svg" viewBox="0 11.449999809265137 80.4000015258789 39.099998474121094" data-asc="0.995" width="80.4000015258789" height="39.099998474121094">
    <defs/>
    <g transform="translate(0, 0)">
        <path d="M14.30 16.80L24.70 16.80L24.70 49.75L14.30 49.75L14.30 16.80M0 12.25L39 12.25L39 21.45L0 21.45L0 12.25ZM41.75 37.45L52.30 37.45Q52.55 39 53.75 40.15Q54.95 41.30 56.98 41.92Q59 42.55 61.75 42.55Q65.55 42.55 67.75 41.58Q69.95 40.60 69.95 38.70Q69.95 37.25 68.70 36.45Q67.45 35.65 63.90 35.30L56.90 34.65Q49.15 33.95 45.65 31.13Q42.15 28.30 42.15 23.50Q42.15 19.60 44.43 16.90Q46.70 14.20 50.83 12.82Q54.95 11.45 60.45 11.45Q65.85 11.45 70.05 12.98Q74.25 14.50 76.72 17.30Q79.20 20.10 79.40 23.80L68.90 23.80Q68.70 22.45 67.63 21.47Q66.55 20.50 64.70 19.97Q62.85 19.45 60.25 19.45Q56.75 19.45 54.70 20.38Q52.65 21.30 52.65 23.10Q52.65 24.40 53.88 25.20Q55.10 26 58.30 26.30L65.75 27.05Q71.10 27.55 74.30 28.77Q77.50 30 78.95 32.15Q80.40 34.30 80.40 37.50Q80.40 41.45 78.05 44.38Q75.70 47.30 71.45 48.92Q67.20 50.55 61.55 50.55Q55.75 50.55 51.33 48.92Q46.90 47.30 44.40 44.33Q41.90 41.35 41.75 37.45Z"/>
    </g>
</svg>